<svg width="180" height="52" viewBox="0 0 180 52" fill="none" xmlns="http://www.w3.org/2000/svg">
<rect width="180" height="52" rx="8" fill="white"/>
<path d="M108.02 25.9612V28.9395H106.153V30.8927H108.02V37.5292C108.02 39.7953 109.045 40.7017 111.624 40.7017C112.077 40.7017 112.509 40.6478 112.887 40.583V38.6514C112.563 38.6838 112.358 38.7054 112.002 38.7054C110.847 38.7054 110.34 38.1659 110.34 36.9357V30.8927H112.887V28.9395H110.34V25.9612H108.02Z" fill="black"/>
<path d="M119.457 40.8636C122.888 40.8636 124.992 38.5651 124.992 34.7559C124.992 30.9682 122.877 28.659 119.457 28.659C116.025 28.659 113.91 30.9682 113.91 34.7559C113.91 38.5651 116.014 40.8636 119.457 40.8636ZM119.457 38.8025C117.439 38.8025 116.306 37.3242 116.306 34.7559C116.306 32.2092 117.439 30.7201 119.457 30.7201C121.464 30.7201 122.608 32.2092 122.608 34.7559C122.608 37.3134 121.464 38.8025 119.457 38.8025Z" fill="black"/>
<path d="M126.793 40.637H129.113V33.6984C129.113 32.0473 130.354 30.9359 132.113 30.9359C132.523 30.9359 133.213 31.0114 133.408 31.0762V28.7885C133.159 28.7237 132.717 28.6913 132.372 28.6913C130.839 28.6913 129.534 29.533 129.199 30.6877H129.026V28.8856H126.793V40.637Z" fill="black"/>
<path d="M139.168 30.6337C140.884 30.6337 142.006 31.8315 142.06 33.6768H136.125C136.255 31.8423 137.453 30.6337 139.168 30.6337ZM142.05 37.4644C141.618 38.3817 140.657 38.8889 139.255 38.8889C137.399 38.8889 136.201 37.5831 136.125 35.5221V35.3926H144.424V34.5832C144.424 30.8927 142.449 28.659 139.179 28.659C135.866 28.659 133.762 31.0438 133.762 34.7991C133.762 38.5543 135.823 40.8636 139.19 40.8636C141.877 40.8636 143.754 39.5687 144.283 37.4644H142.05Z" fill="black"/>
<path d="M92.8052 36.2974C92.9841 39.183 95.3888 41.0285 98.9679 41.0285C102.793 41.0285 105.186 39.0935 105.186 36.0066C105.186 33.5795 103.822 32.2374 100.511 31.4656L98.733 31.0294C96.6303 30.5373 95.7803 29.8774 95.7803 28.7254C95.7803 27.2714 97.1 26.3207 99.0797 26.3207C100.959 26.3207 102.256 27.2491 102.491 28.7366H104.929C104.784 26.0188 102.39 24.1062 99.1133 24.1062C95.5901 24.1062 93.2414 26.0188 93.2414 28.8932C93.2414 31.2643 94.5723 32.6736 97.4915 33.3558L99.5718 33.8591C101.708 34.3625 102.648 35.1006 102.648 36.3309C102.648 37.7626 101.171 38.8027 99.158 38.8027C96.9994 38.8027 95.5006 37.8297 95.2881 36.2974H92.8052Z" fill="black"/>
<path d="M68.7716 28.6913C67.1746 28.6913 65.7933 29.4899 65.0811 30.828H64.9084V28.8856H62.6747V44.5433H64.9948V38.8565H65.1782C65.7933 40.0974 67.1206 40.8312 68.7932 40.8312C71.7607 40.8312 73.6492 38.4896 73.6492 34.7559C73.6492 31.0222 71.7607 28.6913 68.7716 28.6913ZM68.1134 38.7486C66.171 38.7486 64.9516 37.2162 64.9516 34.7667C64.9516 32.3063 66.171 30.774 68.1242 30.774C70.0881 30.774 71.2644 32.274 71.2644 34.7559C71.2644 37.2486 70.0881 38.7486 68.1134 38.7486Z" fill="black"/>
<path d="M81.7675 28.6913C80.1704 28.6913 78.7891 29.4899 78.0769 30.828H77.9043V28.8856H75.6705V44.5433H77.9906V38.8565H78.1741C78.7891 40.0974 80.1164 40.8312 81.789 40.8312C84.7566 40.8312 86.645 38.4896 86.645 34.7559C86.645 31.0222 84.7566 28.6913 81.7675 28.6913ZM81.1092 38.7486C79.1668 38.7486 77.9474 37.2162 77.9474 34.7667C77.9474 32.3063 79.1668 30.774 81.12 30.774C83.084 30.774 84.2602 32.274 84.2602 34.7559C84.2602 37.2486 83.084 38.7486 81.1092 38.7486Z" fill="black"/>
<path d="M58.5121 40.637H61.174L55.3469 24.4977H52.6514L46.8242 40.637H49.3967L50.8842 36.3533H57.0357L58.5121 40.637ZM53.8705 27.428H54.0606L56.3982 34.2506H51.5217L53.8705 27.428Z" fill="black"/>
<path d="M34.2365 27.391C34.2647 25.2057 35.4383 23.1379 37.3 21.9933C36.1255 20.3159 34.1583 19.2524 32.1115 19.1884C29.9285 18.9592 27.8122 20.4946 26.6998 20.4946C25.5658 20.4946 23.8531 19.2111 22.0087 19.249C19.6047 19.3267 17.3635 20.6935 16.1939 22.7953C13.6797 27.1482 15.5551 33.5456 17.9635 37.0642C19.1684 38.7871 20.5767 40.7117 22.4194 40.6435C24.2226 40.5687 24.896 39.4936 27.0726 39.4936C29.229 39.4936 29.8608 40.6435 31.7409 40.6001C33.6758 40.5687 34.8949 38.8695 36.0576 37.1302C36.9233 35.9025 37.5895 34.5457 38.0315 33.1099C35.7577 32.1482 34.2392 29.8599 34.2365 27.391Z" fill="black"/>
<path d="M30.6853 16.8744C31.7403 15.6079 32.2601 13.98 32.1342 12.3365C30.5224 12.5058 29.0336 13.2762 27.9644 14.494C26.9188 15.684 26.3747 17.2832 26.4775 18.8638C28.0899 18.8804 29.675 18.131 30.6853 16.8744Z" fill="black"/>
<path d="M50.6392 18.072C50.9632 18.072 51.1672 17.832 51.1672 17.46V10.44H52.7392C53.0392 10.44 53.2792 10.236 53.2792 9.948C53.2792 9.66 53.0392 9.456 52.7392 9.456H48.5272C48.2272 9.456 47.9872 9.66 47.9872 9.948C47.9872 10.236 48.2272 10.44 48.5272 10.44H50.0992V17.46C50.0992 17.832 50.2912 18.072 50.6392 18.072ZM55.4719 11.004C55.6999 11.004 55.8319 10.848 55.8319 10.62V10.536C56.3479 10.428 56.6239 10.092 56.6239 9.576C56.6239 8.976 56.1439 8.556 55.4839 8.556C54.9079 8.556 54.4399 8.916 54.4399 9.372C54.4399 9.564 54.5839 9.732 54.7639 9.732C54.9079 9.732 55.0039 9.672 55.1119 9.504C55.2079 9.348 55.3399 9.276 55.4839 9.276C55.6879 9.276 55.8319 9.408 55.8319 9.588C55.8319 9.792 55.7119 9.912 55.4599 9.96C55.1959 9.996 55.1119 10.068 55.1119 10.272V10.656C55.1119 10.848 55.2559 11.004 55.4719 11.004ZM55.3639 18.096C56.1079 18.096 56.7079 17.796 57.0919 17.184H57.1279V17.52C57.1519 17.868 57.3319 18.072 57.6439 18.072C57.9799 18.072 58.1719 17.82 58.1719 17.46V12.144C58.1719 11.796 57.9799 11.544 57.6439 11.544C57.3319 11.544 57.1519 11.748 57.1279 12.096V12.432H57.0919C56.6119 11.82 56.0839 11.52 55.3399 11.52C53.6719 11.52 52.5799 12.972 52.5799 14.808C52.5799 16.728 53.6479 18.096 55.3639 18.096ZM55.4119 17.172C54.3199 17.172 53.6959 16.164 53.6959 14.808C53.6959 13.5 54.3319 12.444 55.3999 12.444C56.5279 12.444 57.1159 13.476 57.1159 14.808C57.1159 16.164 56.5159 17.172 55.4119 17.172ZM60.123 10.644C60.507 10.644 60.819 10.344 60.819 9.948C60.819 9.576 60.519 9.264 60.123 9.264C59.751 9.264 59.439 9.576 59.439 9.948C59.439 10.344 59.751 10.644 60.123 10.644ZM60.123 18.072C60.459 18.072 60.651 17.82 60.651 17.46V12.144C60.651 11.796 60.471 11.544 60.123 11.544C59.787 11.544 59.595 11.796 59.595 12.144V17.46C59.595 17.82 59.787 18.072 60.123 18.072ZM66.9517 18.072C67.1917 18.072 67.4077 17.94 67.5037 17.676L69.3277 12.492C69.3997 12.312 69.4357 12.18 69.4357 12.036C69.4357 11.784 69.2317 11.544 68.9437 11.544C68.6677 11.544 68.5117 11.676 68.3917 12.048L66.9637 16.296H66.9397L65.4997 12.036C65.3797 11.664 65.1997 11.544 64.9597 11.544C64.6597 11.544 64.4557 11.772 64.4557 12.036C64.4557 12.216 64.5277 12.42 64.6357 12.696L66.3877 17.664C66.4957 17.94 66.7237 18.072 66.9517 18.072ZM73.9911 9.156C74.2431 9.156 74.4111 8.904 74.4111 8.664C74.4111 8.46 74.3271 8.328 74.1231 8.244L72.3831 7.56C72.2271 7.488 72.1311 7.476 72.0351 7.476C71.7831 7.476 71.6151 7.716 71.6151 7.968C71.6151 8.172 71.6751 8.292 71.9991 8.424L73.5831 9.048C73.7991 9.132 73.9071 9.156 73.9911 9.156ZM71.1231 10.836C71.2671 10.836 71.4471 10.776 71.5551 10.728L72.6951 10.212L73.8111 10.716C73.9791 10.8 74.1351 10.836 74.2551 10.836C74.5071 10.836 74.6751 10.608 74.6751 10.404C74.6751 10.104 74.5071 9.972 74.2911 9.888L73.3431 9.48C73.1511 9.396 72.8271 9.252 72.6951 9.252C72.5751 9.252 72.2511 9.396 72.1071 9.456L71.1111 9.876C70.7631 10.02 70.7151 10.2 70.7151 10.404C70.7151 10.608 70.8711 10.836 71.1231 10.836ZM72.9231 18.096C73.7751 18.096 74.5551 17.796 75.0351 17.424C75.3231 17.208 75.4911 16.956 75.4911 16.74C75.4911 16.464 75.3111 16.272 75.0231 16.272C74.9031 16.272 74.7471 16.356 74.5791 16.5C73.9791 17.016 73.5231 17.184 72.9111 17.184C71.9031 17.184 71.1591 16.368 71.0871 15.24H74.9631C75.3591 15.24 75.5871 15.06 75.5871 14.64C75.5871 13.008 74.5791 11.52 72.8031 11.52C71.0271 11.52 69.9471 13.104 69.9471 14.808C69.9471 16.68 71.0631 18.096 72.9231 18.096ZM71.0871 14.412C71.1711 13.224 71.8431 12.408 72.7671 12.408C73.7271 12.408 74.4231 13.248 74.4711 14.412H71.0871ZM80.3563 18.072C80.6923 18.072 80.8843 17.82 80.8843 17.46V12.528H81.4483C81.7483 12.528 81.9283 12.348 81.9283 12.072C81.9283 11.784 81.7483 11.616 81.4483 11.616H80.8843V10.224C80.8843 9.864 80.6923 9.6 80.3563 9.6C80.0323 9.6 79.8283 9.852 79.8283 10.224V11.616H79.3483C79.0123 11.616 78.8443 11.796 78.8443 12.072C78.8443 12.336 79.0123 12.528 79.3483 12.528H79.8283V17.46C79.8283 17.82 80.0323 18.072 80.3563 18.072ZM83.1972 18.072C83.5332 18.072 83.7252 17.82 83.7252 17.46V14.448C83.7252 13.536 84.1572 12.852 85.1532 12.636C85.6092 12.528 85.7772 12.336 85.7772 12.084C85.7772 11.784 85.5492 11.52 85.1292 11.52C84.6132 11.52 84.0852 11.928 83.7492 12.588H83.7252L83.7132 12.096C83.7012 11.748 83.5212 11.544 83.1972 11.544C82.8612 11.544 82.6692 11.796 82.6692 12.144V17.46C82.6692 17.82 82.8612 18.072 83.1972 18.072ZM87.4004 10.836C87.5444 10.836 87.7244 10.776 87.8324 10.728L88.9724 10.212L90.0884 10.716C90.2564 10.8 90.4124 10.836 90.5324 10.836C90.7844 10.836 90.9524 10.608 90.9524 10.404C90.9524 10.104 90.7844 9.972 90.5684 9.888L89.6204 9.48C89.4284 9.396 89.1044 9.252 88.9724 9.252C88.8524 9.252 88.5284 9.396 88.3844 9.456L87.3884 9.876C87.0404 10.02 86.9924 10.2 86.9924 10.404C86.9924 10.608 87.1484 10.836 87.4004 10.836ZM89.2004 18.096C90.0524 18.096 90.8324 17.796 91.3124 17.424C91.6004 17.208 91.7684 16.956 91.7684 16.74C91.7684 16.464 91.5884 16.272 91.3004 16.272C91.1804 16.272 91.0244 16.356 90.8564 16.5C90.2564 17.016 89.8004 17.184 89.1884 17.184C88.1804 17.184 87.4364 16.368 87.3644 15.24H91.2404C91.6364 15.24 91.8644 15.06 91.8644 14.64C91.8644 13.008 90.8564 11.52 89.0804 11.52C87.3044 11.52 86.2244 13.104 86.2244 14.808C86.2244 16.68 87.3404 18.096 89.2004 18.096ZM87.3644 14.412C87.4484 13.224 88.1204 12.408 89.0444 12.408C90.0044 12.408 90.7004 13.248 90.7484 14.412H87.3644ZM93.3808 18.072C93.7168 18.072 93.9088 17.82 93.9088 17.46V13.992C93.9088 13.128 94.5208 12.468 95.3848 12.468C96.2728 12.468 96.8368 13.032 96.8368 13.848V17.46C96.8368 17.82 97.0288 18.072 97.3648 18.072C97.6888 18.072 97.8808 17.82 97.8808 17.46V13.74C97.8808 12.444 96.9208 11.52 95.5888 11.52C94.8928 11.52 94.3408 11.784 93.9328 12.36H93.9088V12.096C93.8848 11.748 93.7048 11.544 93.3808 11.544C93.0448 11.544 92.8528 11.796 92.8528 12.144V17.46C92.8528 17.82 93.0448 18.072 93.3808 18.072Z" fill="black"/>
</svg>
