<svg width="20" height="20" viewBox="0 0 20 20" fill="none" xmlns="http://www.w3.org/2000/svg">
<path d="M20 10.0599C19.9998 8.14888 19.452 6.27796 18.4215 4.66861C17.391 3.05926 15.921 1.77888 14.1854 0.979051C12.4498 0.179223 10.5214 -0.106557 8.62847 0.155543C6.73552 0.417643 4.95732 1.21665 3.50437 2.45796C2.05142 3.69928 0.984574 5.33092 0.430132 7.15973C-0.12431 8.98853 -0.143127 10.9379 0.375907 12.7771C0.894941 14.6162 1.93009 16.2682 3.35881 17.5373C4.78752 18.8064 6.54997 19.6396 8.4375 19.9382V12.9507H5.89833V10.0599H8.4375V7.85655C8.4375 5.35072 9.93083 3.96572 12.2142 3.96572C12.9643 3.97648 13.7126 4.04165 14.4533 4.16072V6.62238H13.1917C12.8119 6.57197 12.4276 6.67445 12.1233 6.90729C11.8191 7.14013 11.6197 7.48428 11.5692 7.86405C11.5549 7.9704 11.5526 8.07803 11.5625 8.18488V10.0599H14.3333L13.89 12.9507H11.5567V19.9382C13.91 19.5674 16.0537 18.3685 17.6016 16.5575C19.1495 14.7465 20.0001 12.4423 20 10.0599V10.0599Z" fill="#E0E0E0"/>
</svg>
