<svg width="180" height="52" viewBox="0 0 180 52" fill="none" xmlns="http://www.w3.org/2000/svg">
<rect width="180" height="52" rx="8" fill="white"/>
<path d="M90.5777 28.2765C87.5201 28.2765 85.028 30.6022 85.028 33.8054C85.028 36.9891 87.5201 39.3343 90.5777 39.3343C93.6366 39.3343 96.1287 36.9891 96.1287 33.8054C96.1274 30.6022 93.6353 28.2765 90.5777 28.2765ZM90.5777 37.1581C88.902 37.1581 87.4577 35.7762 87.4577 33.8067C87.4577 31.8164 88.9033 30.4553 90.5777 30.4553C92.2534 30.4553 93.6977 31.8164 93.6977 33.8067C93.6977 35.7749 92.2534 37.1581 90.5777 37.1581ZM78.4695 28.2765C75.4119 28.2765 72.9198 30.6022 72.9198 33.8054C72.9198 36.9891 75.4119 39.3343 78.4695 39.3343C81.5284 39.3343 84.0205 36.9891 84.0205 33.8054C84.0205 30.6022 81.5284 28.2765 78.4695 28.2765ZM78.4695 37.1581C76.7938 37.1581 75.3495 35.7762 75.3495 33.8067C75.3495 31.8164 76.7951 30.4553 78.4695 30.4553C80.1452 30.4553 81.5895 31.8164 81.5895 33.8067C81.5908 35.7749 80.1452 37.1581 78.4695 37.1581ZM64.0681 29.9743V32.3195H69.6815C69.5138 33.639 69.0744 34.6023 68.4036 35.2718C67.5872 36.0882 66.3093 36.9891 64.0681 36.9891C60.6127 36.9891 57.9113 34.2032 57.9113 30.7478C57.9113 27.2924 60.6127 24.5065 64.0681 24.5065C65.9323 24.5065 67.2934 25.2397 68.2983 26.1822L69.9532 24.5273C68.5492 23.187 66.6863 22.1613 64.0681 22.1613C59.3348 22.1613 55.3555 26.0145 55.3555 30.7478C55.3555 35.4811 59.3348 39.3343 64.0681 39.3343C66.6226 39.3343 68.5505 38.4958 70.0572 36.9254C71.6068 35.3758 72.0891 33.197 72.0891 31.4381C72.0891 30.8947 72.0475 30.3916 71.963 29.973H64.0681V29.9743ZM122.968 31.7956C122.508 30.5606 121.104 28.2765 118.235 28.2765C115.387 28.2765 113.02 30.5177 113.02 33.8054C113.02 36.9046 115.366 39.3343 118.507 39.3343C121.041 39.3343 122.507 37.7847 123.115 36.8838L121.23 35.6267C120.602 36.5484 119.743 37.1555 118.507 37.1555C117.272 37.1555 116.392 36.59 115.826 35.4798L123.219 32.4222L122.968 31.7956ZM115.428 33.639C115.366 31.5018 117.083 30.4137 118.32 30.4137C119.283 30.4137 120.099 30.896 120.372 31.5863L115.428 33.639ZM109.419 39.0002H111.847V22.7489H109.419V39.0002ZM105.438 29.5128H105.355C104.81 28.8628 103.762 28.2765 102.444 28.2765C99.679 28.2765 97.1453 30.7062 97.1453 33.8275C97.1453 36.9267 99.679 39.3356 102.444 39.3356C103.764 39.3356 104.81 38.7493 105.355 38.0798H105.438V38.8754C105.438 40.9905 104.307 42.1215 102.486 42.1215C100.998 42.1215 100.077 41.0542 99.6998 40.1533L97.5847 41.0334C98.1918 42.4985 99.8038 44.3003 102.486 44.3003C105.334 44.3003 107.743 42.6246 107.743 38.54V28.6132H105.439V29.5128H105.438ZM102.653 37.1581C100.978 37.1581 99.575 35.7541 99.575 33.8275C99.575 31.8788 100.978 30.4553 102.653 30.4553C104.307 30.4553 105.606 31.8788 105.606 33.8275C105.606 35.7541 104.307 37.1581 102.653 37.1581ZM134.349 22.7489H128.536V39.0002H130.961V32.8434H134.347C137.036 32.8434 139.68 30.8973 139.68 27.7968C139.68 24.6963 137.037 22.7489 134.349 22.7489ZM134.411 30.5814H130.961V25.0109H134.411C136.225 25.0109 137.254 26.5124 137.254 27.7968C137.254 29.0552 136.225 30.5814 134.411 30.5814ZM149.403 28.2479C147.646 28.2479 145.828 29.0214 145.075 30.7361L147.228 31.6344C147.688 30.7361 148.546 30.4423 149.444 30.4423C150.699 30.4423 151.974 31.195 151.995 32.5327V32.7004C151.555 32.4495 150.614 32.0738 149.465 32.0738C147.145 32.0738 144.781 33.3491 144.781 35.732C144.781 37.9069 146.684 39.307 148.816 39.307C150.447 39.307 151.346 38.5751 151.91 37.7171H151.994V38.9716H154.336V32.7407C154.337 29.8573 152.182 28.2479 149.403 28.2479ZM149.109 37.1542C148.316 37.1542 147.207 36.7564 147.207 35.7736C147.207 34.5191 148.588 34.0381 149.78 34.0381C150.844 34.0381 151.347 34.2682 151.995 34.5815C151.806 36.0882 150.51 37.1542 149.109 37.1542ZM162.867 28.6028L160.086 35.6488H160.003L157.117 28.6028H154.504L158.832 38.4503L156.364 43.9285H158.894L165.564 28.6028H162.867ZM141.019 39.0002H143.443V22.7489H141.019V39.0002Z" fill="black"/>
<path d="M57.604 17.072C57.928 17.072 58.132 16.832 58.132 16.46V9.44H59.704C60.004 9.44 60.244 9.236 60.244 8.948C60.244 8.66 60.004 8.456 59.704 8.456H55.492C55.192 8.456 54.952 8.66 54.952 8.948C54.952 9.236 55.192 9.44 55.492 9.44H57.064V16.46C57.064 16.832 57.256 17.072 57.604 17.072ZM62.4367 10.004C62.6647 10.004 62.7967 9.848 62.7967 9.62V9.536C63.3127 9.428 63.5887 9.092 63.5887 8.576C63.5887 7.976 63.1087 7.556 62.4487 7.556C61.8727 7.556 61.4047 7.916 61.4047 8.372C61.4047 8.564 61.5487 8.732 61.7287 8.732C61.8727 8.732 61.9687 8.672 62.0767 8.504C62.1727 8.348 62.3047 8.276 62.4487 8.276C62.6527 8.276 62.7967 8.408 62.7967 8.588C62.7967 8.792 62.6767 8.912 62.4247 8.96C62.1607 8.996 62.0767 9.068 62.0767 9.272V9.656C62.0767 9.848 62.2207 10.004 62.4367 10.004ZM62.3287 17.096C63.0727 17.096 63.6727 16.796 64.0567 16.184H64.0927V16.52C64.1167 16.868 64.2967 17.072 64.6087 17.072C64.9447 17.072 65.1367 16.82 65.1367 16.46V11.144C65.1367 10.796 64.9447 10.544 64.6087 10.544C64.2967 10.544 64.1167 10.748 64.0927 11.096V11.432H64.0567C63.5767 10.82 63.0487 10.52 62.3047 10.52C60.6367 10.52 59.5447 11.972 59.5447 13.808C59.5447 15.728 60.6127 17.096 62.3287 17.096ZM62.3767 16.172C61.2847 16.172 60.6607 15.164 60.6607 13.808C60.6607 12.5 61.2967 11.444 62.3647 11.444C63.4927 11.444 64.0807 12.476 64.0807 13.808C64.0807 15.164 63.4807 16.172 62.3767 16.172ZM67.0878 9.644C67.4718 9.644 67.7838 9.344 67.7838 8.948C67.7838 8.576 67.4838 8.264 67.0878 8.264C66.7158 8.264 66.4038 8.576 66.4038 8.948C66.4038 9.344 66.7158 9.644 67.0878 9.644ZM67.0878 17.072C67.4238 17.072 67.6158 16.82 67.6158 16.46V11.144C67.6158 10.796 67.4358 10.544 67.0878 10.544C66.7518 10.544 66.5598 10.796 66.5598 11.144V16.46C66.5598 16.82 66.7518 17.072 67.0878 17.072ZM73.9165 17.072C74.1565 17.072 74.3725 16.94 74.4685 16.676L76.2925 11.492C76.3645 11.312 76.4005 11.18 76.4005 11.036C76.4005 10.784 76.1965 10.544 75.9085 10.544C75.6325 10.544 75.4765 10.676 75.3565 11.048L73.9285 15.296H73.9045L72.4645 11.036C72.3445 10.664 72.1645 10.544 71.9245 10.544C71.6245 10.544 71.4205 10.772 71.4205 11.036C71.4205 11.216 71.4925 11.42 71.6005 11.696L73.3525 16.664C73.4605 16.94 73.6885 17.072 73.9165 17.072ZM80.9559 8.156C81.2079 8.156 81.3759 7.904 81.3759 7.664C81.3759 7.46 81.2919 7.328 81.0879 7.244L79.3479 6.56C79.1919 6.488 79.0959 6.476 78.9999 6.476C78.7479 6.476 78.5799 6.716 78.5799 6.968C78.5799 7.172 78.6399 7.292 78.9639 7.424L80.5479 8.048C80.7639 8.132 80.8719 8.156 80.9559 8.156ZM78.0879 9.836C78.2319 9.836 78.4119 9.776 78.5199 9.728L79.6599 9.212L80.7759 9.716C80.9439 9.8 81.0999 9.836 81.2199 9.836C81.4719 9.836 81.6399 9.608 81.6399 9.404C81.6399 9.104 81.4719 8.972 81.2559 8.888L80.3079 8.48C80.1159 8.396 79.7919 8.252 79.6599 8.252C79.5399 8.252 79.2159 8.396 79.0719 8.456L78.0759 8.876C77.7279 9.02 77.6799 9.2 77.6799 9.404C77.6799 9.608 77.8359 9.836 78.0879 9.836ZM79.8879 17.096C80.7399 17.096 81.5199 16.796 81.9999 16.424C82.2879 16.208 82.4559 15.956 82.4559 15.74C82.4559 15.464 82.2759 15.272 81.9879 15.272C81.8679 15.272 81.7119 15.356 81.5439 15.5C80.9439 16.016 80.4879 16.184 79.8759 16.184C78.8679 16.184 78.1239 15.368 78.0519 14.24H81.9279C82.3239 14.24 82.5519 14.06 82.5519 13.64C82.5519 12.008 81.5439 10.52 79.7679 10.52C77.9919 10.52 76.9119 12.104 76.9119 13.808C76.9119 15.68 78.0279 17.096 79.8879 17.096ZM78.0519 13.412C78.1359 12.224 78.8079 11.408 79.7319 11.408C80.6919 11.408 81.3879 12.248 81.4359 13.412H78.0519ZM87.3212 17.072C87.6572 17.072 87.8492 16.82 87.8492 16.46V11.528H88.4132C88.7132 11.528 88.8932 11.348 88.8932 11.072C88.8932 10.784 88.7132 10.616 88.4132 10.616H87.8492V9.224C87.8492 8.864 87.6572 8.6 87.3212 8.6C86.9972 8.6 86.7932 8.852 86.7932 9.224V10.616H86.3132C85.9772 10.616 85.8092 10.796 85.8092 11.072C85.8092 11.336 85.9772 11.528 86.3132 11.528H86.7932V16.46C86.7932 16.82 86.9972 17.072 87.3212 17.072ZM90.1621 17.072C90.4981 17.072 90.6901 16.82 90.6901 16.46V13.448C90.6901 12.536 91.1221 11.852 92.1181 11.636C92.5741 11.528 92.7421 11.336 92.7421 11.084C92.7421 10.784 92.5141 10.52 92.0941 10.52C91.5781 10.52 91.0501 10.928 90.7141 11.588H90.6901L90.6781 11.096C90.6661 10.748 90.4861 10.544 90.1621 10.544C89.8261 10.544 89.6341 10.796 89.6341 11.144V16.46C89.6341 16.82 89.8261 17.072 90.1621 17.072ZM94.3652 9.836C94.5093 9.836 94.6893 9.776 94.7973 9.728L95.9373 9.212L97.0533 9.716C97.2213 9.8 97.3773 9.836 97.4973 9.836C97.7493 9.836 97.9173 9.608 97.9173 9.404C97.9173 9.104 97.7493 8.972 97.5333 8.888L96.5853 8.48C96.3933 8.396 96.0693 8.252 95.9373 8.252C95.8173 8.252 95.4933 8.396 95.3493 8.456L94.3533 8.876C94.0053 9.02 93.9573 9.2 93.9573 9.404C93.9573 9.608 94.1133 9.836 94.3652 9.836ZM96.1653 17.096C97.0173 17.096 97.7973 16.796 98.2773 16.424C98.5653 16.208 98.7333 15.956 98.7333 15.74C98.7333 15.464 98.5533 15.272 98.2653 15.272C98.1453 15.272 97.9893 15.356 97.8213 15.5C97.2213 16.016 96.7653 16.184 96.1533 16.184C95.1453 16.184 94.4013 15.368 94.3293 14.24H98.2053C98.6013 14.24 98.8293 14.06 98.8293 13.64C98.8293 12.008 97.8213 10.52 96.0453 10.52C94.2693 10.52 93.1893 12.104 93.1893 13.808C93.1893 15.68 94.3053 17.096 96.1653 17.096ZM94.3293 13.412C94.4133 12.224 95.0853 11.408 96.0093 11.408C96.9693 11.408 97.6653 12.248 97.7133 13.412H94.3293ZM100.346 17.072C100.682 17.072 100.874 16.82 100.874 16.46V12.992C100.874 12.128 101.486 11.468 102.35 11.468C103.238 11.468 103.802 12.032 103.802 12.848V16.46C103.802 16.82 103.994 17.072 104.33 17.072C104.654 17.072 104.846 16.82 104.846 16.46V12.74C104.846 11.444 103.886 10.52 102.554 10.52C101.858 10.52 101.306 10.784 100.898 11.36H100.874V11.096C100.85 10.748 100.67 10.544 100.346 10.544C100.01 10.544 99.8177 10.796 99.8177 11.144V16.46C99.8177 16.82 100.01 17.072 100.346 17.072Z" fill="black"/>
<g filter="url(#filter0_ii_4157_5253)">
<path d="M15.594 9.50931C15.2207 9.90448 15 10.5178 15 11.3119V39.687C15 40.4825 15.2207 41.0945 15.594 41.4896L15.689 41.582L31.5842 25.6868V25.4995V25.3122L15.689 9.41565L15.594 9.50931Z" fill="url(#paint0_linear_4157_5253)"/>
<path d="M36.8835 30.9869L31.5859 25.6868V25.4995V25.3121L36.8848 20.0133L37.0041 20.0813L43.2819 23.6481C45.0742 24.6668 45.0742 26.3334 43.2819 27.3534L37.0041 30.9202L36.8835 30.9869Z" fill="url(#paint1_linear_4157_5253)"/>
<g filter="url(#filter1_i_4157_5253)">
<path d="M37.0021 30.9191L31.5826 25.4996L15.5938 41.4898C16.1839 42.1159 17.1603 42.1929 18.2598 41.5693L37.0021 30.9191Z" fill="url(#paint2_linear_4157_5253)"/>
</g>
<path d="M37.0021 20.0802L18.2598 9.43119C17.1603 8.80636 16.1839 8.88463 15.5938 9.51074L31.5839 25.5009L37.0021 20.0802Z" fill="url(#paint3_linear_4157_5253)"/>
</g>
<defs>
<filter id="filter0_ii_4157_5253" x="15" y="9" width="29.625" height="33" filterUnits="userSpaceOnUse" color-interpolation-filters="sRGB">
<feFlood flood-opacity="0" result="BackgroundImageFix"/>
<feBlend mode="normal" in="SourceGraphic" in2="BackgroundImageFix" result="shape"/>
<feColorMatrix in="SourceAlpha" type="matrix" values="0 0 0 0 0 0 0 0 0 0 0 0 0 0 0 0 0 0 127 0" result="hardAlpha"/>
<feOffset dy="-0.15"/>
<feComposite in2="hardAlpha" operator="arithmetic" k2="-1" k3="1"/>
<feColorMatrix type="matrix" values="0 0 0 0 0 0 0 0 0 0 0 0 0 0 0 0 0 0 0.12 0"/>
<feBlend mode="normal" in2="shape" result="effect1_innerShadow_4157_5253"/>
<feColorMatrix in="SourceAlpha" type="matrix" values="0 0 0 0 0 0 0 0 0 0 0 0 0 0 0 0 0 0 127 0" result="hardAlpha"/>
<feOffset dy="0.15"/>
<feComposite in2="hardAlpha" operator="arithmetic" k2="-1" k3="1"/>
<feColorMatrix type="matrix" values="0 0 0 0 1 0 0 0 0 1 0 0 0 0 1 0 0 0 0.25 0"/>
<feBlend mode="normal" in2="effect1_innerShadow_4157_5253" result="effect2_innerShadow_4157_5253"/>
</filter>
<filter id="filter1_i_4157_5253" x="15.5938" y="25.4996" width="21.4102" height="16.5004" filterUnits="userSpaceOnUse" color-interpolation-filters="sRGB">
<feFlood flood-opacity="0" result="BackgroundImageFix"/>
<feBlend mode="normal" in="SourceGraphic" in2="BackgroundImageFix" result="shape"/>
<feColorMatrix in="SourceAlpha" type="matrix" values="0 0 0 0 0 0 0 0 0 0 0 0 0 0 0 0 0 0 127 0" result="hardAlpha"/>
<feOffset dy="-0.15"/>
<feComposite in2="hardAlpha" operator="arithmetic" k2="-1" k3="1"/>
<feColorMatrix type="matrix" values="0 0 0 0 0 0 0 0 0 0 0 0 0 0 0 0 0 0 0.08 0"/>
<feBlend mode="normal" in2="shape" result="effect1_innerShadow_4157_5253"/>
</filter>
<linearGradient id="paint0_linear_4157_5253" x1="30.1752" y1="11.0117" x2="8.64371" y2="32.5432" gradientUnits="userSpaceOnUse">
<stop stop-color="#00A0FF"/>
<stop offset="0.0066" stop-color="#00A1FF"/>
<stop offset="0.2601" stop-color="#00BEFF"/>
<stop offset="0.5122" stop-color="#00D2FF"/>
<stop offset="0.7604" stop-color="#00DFFF"/>
<stop offset="1" stop-color="#00E3FF"/>
</linearGradient>
<linearGradient id="paint1_linear_4157_5253" x1="45.615" y1="25.4995" x2="14.5714" y2="25.4995" gradientUnits="userSpaceOnUse">
<stop stop-color="#FFE000"/>
<stop offset="0.4087" stop-color="#FFBD00"/>
<stop offset="0.7754" stop-color="#FFA500"/>
<stop offset="1" stop-color="#FF9C00"/>
</linearGradient>
<linearGradient id="paint2_linear_4157_5253" x1="34.059" y1="28.4427" x2="4.85957" y2="57.6421" gradientUnits="userSpaceOnUse">
<stop stop-color="#FF3A44"/>
<stop offset="1" stop-color="#C31162"/>
</linearGradient>
<linearGradient id="paint3_linear_4157_5253" x1="11.5669" y1="0.0649543" x2="24.6052" y2="13.1033" gradientUnits="userSpaceOnUse">
<stop stop-color="#32A071"/>
<stop offset="0.0685" stop-color="#2DA771"/>
<stop offset="0.4762" stop-color="#15CF74"/>
<stop offset="0.8009" stop-color="#06E775"/>
<stop offset="1" stop-color="#00F076"/>
</linearGradient>
</defs>
</svg>
