<svg width="17" height="18" viewBox="0 0 17 18" fill="none" xmlns="http://www.w3.org/2000/svg">
<path d="M13.7995 6.09067C13.7995 9.23253 8.46615 14.8469 8.46615 14.8469C8.46615 14.8469 3.13281 9.23307 3.13281 6.09067C3.13281 2.86933 5.88908 1 8.46615 1C11.0432 1 13.7995 2.86933 13.7995 6.09067Z" stroke="#333333" stroke-linecap="round" stroke-linejoin="round"/>
<path d="M8.46719 7.9334C9.35084 7.9334 10.0672 7.21705 10.0672 6.3334C10.0672 5.44974 9.35084 4.7334 8.46719 4.7334C7.58353 4.7334 6.86719 5.44974 6.86719 6.3334C6.86719 7.21705 7.58353 7.9334 8.46719 7.9334Z" stroke="#333333" stroke-linecap="round" stroke-linejoin="round"/>
<path d="M4.2 13.1157C2.2656 13.5013 1 14.1419 1 14.8667C1 16.0448 4.34293 17 8.46667 17C12.5904 17 15.9333 16.0448 15.9333 14.8667C15.9333 14.1419 14.6677 13.5013 12.7333 13.1157" stroke="#333333" stroke-linecap="round" stroke-linejoin="round"/>
</svg>
