<svg width="20" height="20" viewBox="0 0 20 20" fill="none" xmlns="http://www.w3.org/2000/svg">
<path d="M9.9987 2.48565C12.4462 2.48565 12.7362 2.49482 13.7029 2.53898C14.284 2.54575 14.8597 2.65259 15.4045 2.85482C15.8029 3.00157 16.1631 3.23596 16.4587 3.54065C16.7634 3.83623 16.9978 4.19649 17.1445 4.59482C17.3468 5.13969 17.4536 5.71533 17.4604 6.29648C17.5045 7.26315 17.5137 7.55315 17.5137 10.0007C17.5137 12.4482 17.5045 12.7382 17.4604 13.7048C17.4536 14.286 17.3468 14.8616 17.1445 15.4065C16.992 15.8019 16.7584 16.161 16.4587 16.4606C16.159 16.7603 15.7999 16.9939 15.4045 17.1465C14.8597 17.3487 14.284 17.4556 13.7029 17.4623C12.7362 17.5065 12.4462 17.5157 9.9987 17.5157C7.5512 17.5157 7.2612 17.5065 6.29453 17.4623C5.71338 17.4556 5.13774 17.3487 4.59287 17.1465C4.19454 16.9997 3.83427 16.7653 3.5387 16.4607C3.234 16.1651 2.99962 15.8048 2.85286 15.4065C2.65064 14.8616 2.5438 14.286 2.53703 13.7048C2.49286 12.7382 2.4837 12.4482 2.4837 10.0007C2.4837 7.55315 2.49286 7.26315 2.53703 6.29648C2.5438 5.71533 2.65064 5.13969 2.85286 4.59482C2.99962 4.19649 3.234 3.83623 3.5387 3.54065C3.83427 3.23596 4.19454 3.00157 4.59287 2.85482C5.13774 2.65259 5.71338 2.54575 6.29453 2.53898C7.2612 2.49482 7.5512 2.48565 9.9987 2.48565ZM9.9987 0.833984C7.50953 0.833984 7.19703 0.844818 6.21953 0.888984C5.45919 0.904698 4.70695 1.04867 3.99453 1.31482C3.38499 1.55079 2.83153 1.91164 2.36971 2.37418C1.90788 2.83673 1.54789 3.39074 1.31286 4.00065C1.04671 4.71307 0.902745 5.4653 0.887031 6.22565C0.842865 7.19898 0.832031 7.51149 0.832031 10.0007C0.832031 12.4898 0.842865 12.8023 0.887031 13.7798C0.902745 14.5402 1.04671 15.2924 1.31286 16.0048C1.54884 16.6144 1.90969 17.1678 2.37223 17.6296C2.83477 18.0915 3.38879 18.4515 3.9987 18.6865C4.71111 18.9526 5.46335 19.0966 6.2237 19.1123C7.19703 19.1565 7.50953 19.1673 9.9987 19.1673C12.4879 19.1673 12.8004 19.1565 13.7779 19.1123C14.5382 19.0966 15.2905 18.9526 16.0029 18.6865C16.6124 18.4505 17.1659 18.0897 17.6277 17.6271C18.0895 17.1646 18.4495 16.6106 18.6845 16.0007C18.9507 15.2882 19.0947 14.536 19.1104 13.7757C19.1545 12.8023 19.1654 12.4898 19.1654 10.0007C19.1654 7.51149 19.1545 7.19899 19.1104 6.22149C19.0947 5.46114 18.9507 4.7089 18.6845 3.99648C18.4486 3.38694 18.0877 2.83349 17.6252 2.37166C17.1626 1.90983 16.6086 1.54985 15.9987 1.31482C15.2863 1.04867 14.534 0.904698 13.7737 0.888984C12.8004 0.844818 12.4879 0.833984 9.9987 0.833984Z" fill="#E0E0E0"/>
<path d="M10.0005 5.29297C9.06941 5.29297 8.15927 5.56906 7.38512 6.08633C6.61098 6.60359 6.00761 7.3388 5.65131 8.19899C5.29501 9.05917 5.20178 10.0057 5.38342 10.9189C5.56506 11.832 6.01341 12.6708 6.67177 13.3292C7.33012 13.9875 8.16892 14.4359 9.08208 14.6175C9.99525 14.7992 10.9418 14.7059 11.802 14.3496C12.6621 13.9933 13.3973 13.39 13.9146 12.6158C14.4319 11.8417 14.708 10.9315 14.708 10.0005C14.708 8.75196 14.212 7.55459 13.3292 6.67176C12.4463 5.78894 11.249 5.29297 10.0005 5.29297ZM10.0005 13.0563C9.39608 13.0563 8.80527 12.8771 8.30274 12.5413C7.80021 12.2055 7.40854 11.7283 7.17725 11.1699C6.94596 10.6115 6.88544 9.99708 7.00335 9.40431C7.12126 8.81153 7.4123 8.26704 7.83967 7.83967C8.26704 7.4123 8.81153 7.12126 9.40431 7.00335C9.99708 6.88544 10.6115 6.94596 11.1699 7.17725C11.7283 7.40854 12.2055 7.80021 12.5413 8.30274C12.8771 8.80527 13.0563 9.39608 13.0563 10.0005C13.0563 10.8109 12.7344 11.5882 12.1613 12.1613C11.5882 12.7344 10.8109 13.0563 10.0005 13.0563Z" fill="#E0E0E0"/>
<path d="M14.893 6.20781C15.5005 6.20781 15.993 5.71533 15.993 5.10781C15.993 4.5003 15.5005 4.00781 14.893 4.00781C14.2855 4.00781 13.793 4.5003 13.793 5.10781C13.793 5.71533 14.2855 6.20781 14.893 6.20781Z" fill="#E0E0E0"/>
</svg>
