<svg width="20" height="20" viewBox="0 0 20 20" fill="none" xmlns="http://www.w3.org/2000/svg">
<path d="M8.48978 7.4475V10.8825C8.05716 10.7684 7.60446 10.7529 7.16504 10.837C6.72562 10.9211 6.31068 11.1028 5.95081 11.3686C5.59094 11.6345 5.29531 11.9777 5.08572 12.3729C4.87612 12.7682 4.75791 13.2055 4.73978 13.6525C4.715 14.0374 4.77292 14.4231 4.90964 14.7838C5.04636 15.1444 5.25871 15.4716 5.53242 15.7433C5.80613 16.0151 6.13485 16.2251 6.49647 16.3592C6.85809 16.4933 7.24424 16.5484 7.62894 16.5208C8.01754 16.5506 8.40798 16.4957 8.77328 16.3599C9.13858 16.2241 9.47003 16.0105 9.74475 15.7341C10.0195 15.4576 10.2309 15.1248 10.3644 14.7587C10.4979 14.3925 10.5504 14.0017 10.5181 13.6133V0H13.9156C14.4931 3.59583 16.2914 4.43 18.6989 4.815V8.26083C17.0305 8.12401 15.4211 7.58037 14.0114 6.6775V13.4833C14.0114 16.5667 12.1864 20 7.65561 20C6.80558 19.9963 5.96484 19.8229 5.18268 19.4901C4.40052 19.1572 3.69267 18.6716 3.10064 18.0616C2.5086 17.4516 2.04428 16.7296 1.7349 15.9379C1.42552 15.1461 1.27731 14.3006 1.29894 13.4508C1.32587 12.5661 1.53999 11.6972 1.9272 10.9013C2.31441 10.1054 2.86592 9.40057 3.54536 8.83333C4.22481 8.26609 5.01676 7.84929 5.86902 7.61042C6.72128 7.37155 7.61449 7.31602 8.48978 7.4475Z" fill="#E0E0E0"/>
</svg>
